<?xml version="1.0" encoding="utf-8"?>
<!-- Generator: Adobe Illustrator 15.0.0, SVG Export Plug-In . SVG Version: 6.00 Build 0)  -->
<!DOCTYPE svg PUBLIC "-//W3C//DTD SVG 1.1//EN" "http://www.w3.org/Graphics/SVG/1.1/DTD/svg11.dtd">
<svg version="1.1" id="Layer_1" xmlns="http://www.w3.org/2000/svg" xmlns:xlink="http://www.w3.org/1999/xlink" x="0px" y="0px"
	 width="229.61px" height="229.61px" viewBox="0 0 229.61 229.61" enable-background="new 0 0 229.61 229.61" xml:space="preserve">
<filter  x="-12.7%" y="-17.7%" height="148.4%" width="125.4%" id="filter-3" filterUnits="objectBoundingBox">
	<feOffset  result="shadowOffsetOuter1" in="SourceAlpha" dy="6" dx="0"></feOffset>
	<feGaussianBlur  result="shadowBlurOuter1" in="shadowOffsetOuter1" stdDeviation="6.5"></feGaussianBlur>
	<feColorMatrix  type="matrix" values="0 0 0 0 0   0 0 0 0 0   0 0 0 0 0  0 0 0 0.248131793 0" in="shadowBlurOuter1">
		</feColorMatrix>
</filter>
<g id="Page-1">
	<g id="icon" transform="translate(-350.000000, -350.000000)">
		<g id="banano-icon" transform="translate(150.000000, 150.000000)">
			<g transform="translate(200.000000, 200.000000)">
				<g id="base">
					<path id="path-1" fill="#FADD0D" d="M115.061,1.118L115.061,1.118c62.625,0,113.394,50.759,113.394,113.382l0,0
						c0,62.625-50.769,113.394-113.394,113.394l0,0c-62.623,0-113.382-50.769-113.382-113.394l0,0
						C1.679,51.877,52.438,1.118,115.061,1.118z"/>
					<path id="Combined-Shape" fill="#E7C91E" d="M228.455,114.5c0,62.625-50.769,113.394-113.394,113.394
						c-62.623,0-113.382-50.769-113.382-113.394c0-0.375,0.001-0.756,0.007-1.134c0.603,62.108,51.133,112.259,113.375,112.259
						c62.236,0,112.78-50.151,113.386-112.259C228.452,113.744,228.455,114.125,228.455,114.5z"/>
					<path id="Combined-Shape_1_" fill="#FEEE7F" d="M228.447,115.641C227.841,53.538,177.297,3.386,115.061,3.386
						C52.819,3.386,2.289,53.538,1.686,115.641c-0.005-0.395-0.007-0.764-0.007-1.141c0-62.623,50.759-113.382,113.382-113.382
						c62.625,0,113.394,50.759,113.394,113.382C228.455,114.877,228.452,115.246,228.447,115.641L228.447,115.641z"/>
					<path id="innerring" fill="#2B2B2E" d="M115.061,12.454L115.061,12.454c56.369,0,102.052,45.689,102.052,102.046l0,0
						c0,56.368-45.684,102.052-102.052,102.052l0,0c-56.357,0-102.046-45.684-102.046-102.052l0,0
						C13.015,58.143,58.704,12.454,115.061,12.454z"/>
				</g>
				
					<radialGradient id="finish_1_" cx="-333.269" cy="618.8965" r="0.7347" gradientTransform="matrix(300 0 0 -300 100018.5 185695)" gradientUnits="userSpaceOnUse">
					<stop  offset="0" style="stop-color:#FFFFFF;stop-opacity:0.15"/>
					<stop  offset="1" style="stop-color:#FFFFFF;stop-opacity:0"/>
				</radialGradient>
				<path id="finish" fill="url(#finish_1_)" d="M115.061,1.118L115.061,1.118c62.625,0,113.394,50.759,113.394,113.382l0,0
					c0,62.625-50.769,113.394-113.394,113.394l0,0c-62.623,0-113.382-50.769-113.382-113.394l0,0
					C1.679,51.877,52.438,1.118,115.061,1.118z"/>
				<g id="logo" transform="translate(61.800000, 103.800000)">
					<g>
						<g filter="url(#filter-3)">
							<path fill="#010101" d="M82.836,45.562c-42.168,5.306-61.582-31.817-58.144-35.437c2.273-2.394,5.814-2.533,8.871-2.617
								c14.1-0.379,34.047,16.072,38.102,15.99c7.832-0.162,19.622-12.617,27.344-22.884c3.244-4.294,23.44-10.764,21.204,0.521
								C112.949,37.735,88.203,44.885,82.836,45.562z M24.147-23.701c42.167-5.306,61.581,31.81,58.143,35.437
								c-2.274,2.382-5.813,2.523-8.882,2.605C59.32,14.727,39.361-1.734,35.317-1.65C27.474-1.488,15.685,10.967,7.958,21.234
								c-3.229,4.294-23.432,10.763-21.196-0.507C-5.972-15.878,18.779-23.026,24.147-23.701z"/>
						</g>
						<g>
							<path id="path-2_1_" fill="#FADD0D" d="M82.836,45.562c-42.168,5.306-61.582-31.817-58.144-35.437
								c2.273-2.394,5.814-2.533,8.871-2.617c14.1-0.379,34.047,16.072,38.102,15.99c7.832-0.162,19.622-12.617,27.344-22.884
								c3.244-4.294,23.44-10.764,21.204,0.521C112.949,37.735,88.203,44.885,82.836,45.562z M24.147-23.701
								c42.167-5.306,61.581,31.81,58.143,35.437c-2.274,2.382-5.813,2.523-8.882,2.605C59.32,14.727,39.361-1.734,35.317-1.65
								C27.474-1.488,15.685,10.967,7.958,21.234c-3.229,4.294-23.432,10.763-21.196-0.507
								C-5.972-15.878,18.779-23.026,24.147-23.701z"/>
						</g>
					</g>
					<path id="highlight" fill="#FEEE7F" d="M82.584,11.167c-1.498-9.036-20.994-37.768-58.437-33.06
						c-5.368,0.679-30.119,7.826-37.385,44.434c-0.041,0.237-0.08,0.463-0.112,0.677c-0.105-0.714-0.078-1.533,0.112-2.49
						c7.266-36.605,32.017-43.753,37.385-44.429C64.694-28.806,84.196,5.313,82.584,11.167z M24.397,12.501
						c-0.187-1.134-0.094-1.972,0.294-2.375c2.273-2.394,5.814-2.533,8.871-2.617c14.1-0.379,34.047,16.072,38.102,15.99
						c7.832-0.162,19.622-12.617,27.344-22.884c3.181-4.202,22.614-10.498,21.324-0.163c-1.165-7.707-18.355-1.955-21.324,1.982
						c-7.722,10.262-19.512,22.723-27.344,22.884C67.61,25.4,47.662,8.938,33.563,9.319c-3.057,0.081-6.598,0.232-8.871,2.614
						C24.563,12.071,24.457,12.266,24.397,12.501z"/>
					<path id="shadow" fill="#E7C91E" d="M82.584,9.357c0.175,1.136,0.094,1.966-0.294,2.378c-2.274,2.382-5.813,2.523-8.882,2.605
						C59.32,14.727,39.361-1.734,35.317-1.65C27.474-1.488,15.685,10.967,7.958,21.234c-3.165,4.202-22.604,10.509-21.309,0.165
						c1.166,7.704,18.353,1.955,21.309-1.984C15.685,9.159,27.474-3.3,35.317-3.457c4.044-0.083,24.003,16.38,38.091,15.997
						c3.068-0.079,6.607-0.23,8.882-2.625C82.418,9.781,82.523,9.591,82.584,9.357z M24.397,10.686
						c1.499,9.041,20.998,37.776,58.438,33.058c5.367-0.67,30.113-7.828,37.377-44.426c0.049-0.234,0.084-0.459,0.12-0.674
						c0.093,0.712,0.078,1.533-0.12,2.491c-7.264,36.6-32.01,43.749-37.377,44.427C42.287,50.666,22.777,16.533,24.397,10.686z"/>
				</g>
			</g>
		</g>
	</g>
</g>
</svg>
