<svg width="602" height="401" viewBox="0 0 602 401" fill="none" xmlns="http://www.w3.org/2000/svg">
  <path fill-rule="evenodd" clip-rule="evenodd" d="M368.52 17.06c.5.5.88 1.12 1.1 1.8l5.08 18.97a4.35 4.35 0 0 1-.77 3.59l-14.44 14.5a4.32 4.32 0 0 1-3.21.8c-.06 0-.2-.04-.4-.09l-.12-.03-.63-.16-7.22-1.93-6.05-1.62 8.34-28.77 6.62-1.8-8.14 29.38 8.04 2.15c.36.05.72-.04 1.01-.24l4.98-5-8.94-8.2 2.09-7.56 11.75 10.83 1.38-1.39-.01.01-12.5-11.78 1.83-6.58 12.76 11.62-4.25-15.85a1.44 1.44 0 0 0-.94-.94l-18.75-5a1.48 1.48 0 0 0-1.24.33c-.04.04-13.67 13.72-13.73 13.8a1.46 1.46 0 0 0-.3 1.2l4.08 15.15 4.91-15.3c.6-2.02 2.75-3.2 4.9-3.73l2.52-.61-8.42 27.74-5.13-1.38-.44-1.61v-.02.02l-5.26-19.64a4.34 4.34 0 0 1 1.43-4.22l13.5-13.57a4.42 4.42 0 0 1 3.78-1.01l19 5.07c.67.2 1.29.57 1.79 1.07Z" fill="#3B507B"/>
  <path d="M444.82 61.83A41 41 0 1 0 365.6 40.6a41 41 0 0 0 79.2 21.23Z" fill="#F5F8FF" stroke="#333"/>
  <path d="M439.87 60.5a35.87 35.87 0 1 0-69.3-18.57 35.87 35.87 0 0 0 69.3 18.57Z" fill="#3B507B"/>
  <path d="M412.27 66.13c-15.32-2.1-18.65-16.98-17.1-17.93 1.03-.63 2.28-.34 3.37-.09 5 1.2 10.45 8.86 11.88 9.22 2.77.68 8.1-2.6 11.77-5.47 1.55-1.2 9.26-1.58 7.4 2.18-6 12.18-15.37 12.36-17.32 12.09Zm-14.1-29.87c15.32 2.1 18.65 16.98 17.1 17.93-1.03.62-2.28.34-3.37.08-4.99-1.2-10.45-8.86-11.88-9.2-2.77-.69-8.1 2.58-11.77 5.46-1.55 1.2-9.26 1.58-7.4-2.18 6-12.18 15.37-12.36 17.32-12.1Z" fill="#F5F8FF"/>
  <path fill-rule="evenodd" clip-rule="evenodd" d="m153.03 19.66 15.06 28.06L184.8 38l.1-19.36-31.84.97.19.1-.22-.05Zm46.24 26.7-.22-.13.25.08-11.71-25.9.08 19.25-16.68 9.5 28.28-2.8Z" fill="#66E279"/>
  <path d="M134 288.5c67-23 228-159.5 328-156" stroke="#1969FF" stroke-width="5" stroke-linecap="round" stroke-linejoin="round" stroke-dasharray="10 10"/>
  <path d="M135.6 319c109.9 31 246.9-144.5 345.9-84" stroke="#F0B90B" stroke-width="5" stroke-linecap="round" stroke-linejoin="round" stroke-dasharray="10 10"/>
  <path d="M58 242.5c-9-44.5 32-41 32-95" stroke="#8347E5" stroke-width="5" stroke-linecap="round" stroke-linejoin="round" stroke-dasharray="10 10"/>
  <path d="M89 246.5c41.5-38 72.5-137 110-154" stroke="#66E279" stroke-width="5" stroke-linecap="round" stroke-linejoin="round" stroke-dasharray="10 10"/>
  <path d="M118.5 261.5C161 205.5 272 100 357 74" stroke="#3B507B" stroke-width="5" stroke-linecap="round" stroke-linejoin="round" stroke-dasharray="10 10"/>
  <path d="M62.2 37.2c-1-.5-2.3-.5-3.5 0l-8.2 5-5.5 3-8 5c-1.1.5-2.4.5-3.6 0l-6.3-4c-1-.5-1.7-1.7-1.7-3v-7.4c0-1.2.5-2.4 1.7-3.1l6.3-3.7c1-.6 2.3-.6 3.5 0l6.3 3.8c1 .6 1.8 1.8 1.8 3.1v4.9l5.5-3.3v-5c0-1.2-.6-2.4-1.7-3.1l-11.7-7c-1-.5-2.4-.5-3.6 0l-12 7.1a3.3 3.3 0 0 0-1.7 3v14c0 1.1.6 2.3 1.8 3l11.8 7c1 .6 2.3.6 3.5 0l8-4.8 5.6-3.2 8-4.7c1-.6 2.4-.6 3.6 0l6.2 3.7c1 .5 1.8 1.7 1.8 3V58c0 1.1-.6 2.3-1.8 3l-6 3.8c-1.1.6-2.4.6-3.6 0l-6.3-3.7c-1-.6-1.7-1.8-1.7-3.1v-4.8l-5.6 3.3v4.9c0 1.2.6 2.3 1.8 3l11.8 7c1 .6 2.3.6 3.5 0l11.8-7c1-.5 1.8-1.7 1.8-3v-14c0-1.3-.6-2.5-1.8-3.2l-11.8-7Z" fill="#8347E5"/>
  <path d="M536.8 35.3c1-1.2 3-2 4.6-1.9l15.8 1.6c1 0 1.6.5 2 1l14 34.5c.2.7 0 1.5-.6 2.3l-10.3 12.1c-1 1.2-3 2-4.6 1.9L542 85.3c-1-.1-1.7-.7-2-1.3l-.1-.2-13.8-34v-.1l-.1-.1c-.2-.7 0-1.4.6-2.2l10.2-12.1ZM565 56l-9.7 11.4c-1 1.2-3 2-4.5 1.9l-15-1.5L542 83l14.9 1.4a6 6 0 0 0 2.4-.1h.2c.7-.4 1.3-1 1.9-1.7l9.7-11.5L565 56Zm-27.5 28c.6 1.3 1 2.1 1.6 2.6.5.4 1 .6 2 .8l.6.2h.3l1 .1-.4 2.2-1-.1h-.2l-.8-.2c-2.5-.5-3.9-1.7-5.1-4.7l2-.9Zm8.1-30.9-.2.2L535 65.6l15.9 1.6h.3l-5.6-14.1Zm2.1-.8 5.7 14 .2-.3 10.2-12-15.9-1.6a2 2 0 0 0-.3 0l.1-.1Zm10.5-13-9.3 10.9 14.3 1.3-5-12.2ZM529 51.1l5 12.2 9.2-10.8-14.2-1.4Zm12-15.5c-.8 0-2 .5-2.6 1L528.2 49l15.9 1.5c.8.1 2-.4 2.6-1L557 37.2l-16-1.6Zm15.6-5.4 1 .2h.2l.8.1c2.5.6 3.8 1.7 5 4.7l-2 1c-.5-1.4-1-2.2-1.6-2.7-.4-.4-1-.6-1.9-.8l-.7-.1h-.3l-.9-.2.4-2.2Z" fill="#1969FF"/>
  <path d="M126 313.3a62 62 0 1 0-124 0 62 62 0 0 0 124 0Z" fill="#FBDD11" stroke="#333"/>
  <path d="M118.3 313.3a54.25 54.25 0 1 0-108.5 0 54.25 54.25 0 0 0 108.5 0Z" fill="#333"/>
  <path d="M80.1 332.3c-23.2 3-33.8-17.5-32-19.5 1.3-1.3 3.3-1.4 5-1.4 7.7-.2 18.7 8.8 20.9 8.8 4.3 0 10.8-7 15-12.6 1.8-2.4 13-6 11.7.3-4 20.1-17.6 24-20.6 24.4Zm-32.2-38c23.2-3 33.8 17.4 32 19.4-1.3 1.3-3.3 1.4-5 1.5-7.7.2-18.7-8.9-20.9-8.8-4.3 0-10.8 7-15 12.6-1.8 2.3-13 5.9-11.7-.3 4-20.2 17.6-24.1 20.6-24.5v.1Z" fill="#FBDD11"/>
  <path d="M139.5 80.13a43.98 43.98 0 0 0-53.9-31.1 44 44 0 1 0 53.9 31.1Z" fill="#fff" stroke="#333" stroke-width=".8"/>
  <path d="M134.22 81.65a38.48 38.48 0 1 0-74.36 19.83 38.48 38.48 0 0 0 74.36-19.83Z" fill="#8347E5"/>
  <path d="M111.51 101.64c-15.35 6.24-26.38-5.83-25.5-7.51.64-1.12 2-1.6 3.11-1.92 5.28-1.6 14.4 2.64 16 2.24 2.95-.88 6.07-6.8 8-11.44.8-1.92 7.75-6.4 7.99-1.92.96 14.56-7.6 19.75-9.6 20.55Zm-29.1-20.23c15.35-6.23 26.38 5.76 25.5 7.52-.63 1.12-1.91 1.52-3.11 1.84-5.28 1.6-14.4-2.64-16-2.16-2.87.8-6.07 6.72-8 11.35-.8 2-7.67 6.4-7.99 2-.96-14.55 7.68-19.75 9.6-20.55Z" fill="#fff"/>
  <path fill-rule="evenodd" clip-rule="evenodd" d="m581.8 210.1-16 4.3-2.4-9.3 25.1-6.7 6.8 25.2-9.3 2.5-4.2-16Zm-25-3.2-9.2 2.5 2.4 9.2 9.3-2.5-2.5-9.2Zm8.5 31.7-4.2-16-9.3 2.6 6.7 25.1 25.2-6.7-2.4-9.3-16 4.3Zm31.7-8.5-9.2 2.5 2.5 9.2 9.2-2.4-2.5-9.3Zm-17.5-2.3-9.4 2.5-2.5-9.4 1.6-.4.8-.2 7-1.9 2.5 9.4Z" fill="#F0B90B"/>
  <path d="M568.6 135.6a50.02 50.02 0 1 0-96.61-26 50.02 50.02 0 0 0 96.61 26Z" fill="#fff" stroke="#333"/>
  <path d="M562.6 134a43.8 43.8 0 1 0-84.6-22.7 43.78 43.78 0 1 0 84.6 22.6v.1Z" fill="#1969FF"/>
  <path d="M529 140.8c-18.8-2.6-22.8-20.7-21-21.9 1.3-.7 2.8-.4 4.2 0 6 1.4 12.7 10.7 14.5 11.2 3.3.8 9.8-3.2 14.3-6.7 1.9-1.5 11.3-2 9 2.7-7.3 14.8-18.7 15-21 14.7Zm-17.3-36.4c18.7 2.5 22.8 20.7 20.9 21.8-1.3.8-2.8.5-4.1.1-6.1-1.4-12.8-10.8-14.5-11.2-3.4-.8-9.9 3.2-14.4 6.7-1.9 1.5-11.3 2-9-2.7 7.3-14.8 18.7-15 21.1-14.7Z" fill="#fff"/>
  <path d="M578.6 268.5a55.02 55.02 0 1 0-106.28 28.49A55.02 55.02 0 0 0 578.6 268.5Z" fill="#333" stroke="#333"/>
  <path d="M570.3 270.7a46.43 46.43 0 1 0-89.7 24 46.43 46.43 0 0 0 89.7-24Z" fill="#F0B90B"/>
  <path d="M543.6 295.3c-19.2 7.9-33-7.2-31.9-9.3.8-1.4 2.5-2 3.9-2.4 6.6-2 18 3.3 20 2.7 3.7-1 7.6-8.4 10-14.2 1-2.4 9.7-8 10-2.4 1.2 18.1-9.5 24.6-12 25.6Zm-36.4-25.2c19.2-7.8 33 7.2 31.9 9.4-.8 1.4-2.4 1.9-3.9 2.3-6.6 2-18-3.3-20-2.7-3.6 1-7.6 8.4-10 14.2-1 2.5-9.6 8-10 2.5-1.2-18.2 9.6-24.7 12-25.7Z" fill="#333"/>
  <path d="M377.4 395H221.7a2 2 0 1 0 0 4h155.7a2 2 0 1 0 0-4Z" fill="#000" fill-opacity=".1"/>
  <path d="M329.4 367.4a68.58 68.58 0 0 1-21-8.1 2.7 2.7 0 0 1-1-3.6 2.7 2.7 0 0 1 3.5-1.1c8 4.3 14.6 6.8 19.3 7.5 3 .5 5.3.1 6.6-1 1.4-1.3 1.3-3.5 1-7.7-.5-5-1-11 2-18.1 4.7-10.7 16.4-20.8 28.7-18.9 7.9 1.2 15.4 7.1 17 15 1.5 6.8-.6 16-7.8 18.6-4.7 1.7-10.2-.2-14-3.4a2.7 2.7 0 0 1-.2-3.8c.9-1 2.6-1.2 3.7-.2 0 0 4.7 3.9 8.7 2.4 4.6-1.6 5.3-8.4 4.5-12.4-1.3-5.8-7-10-12.7-10.9-9.9-1.5-19.3 7.3-23 15.7-2.5 5.8-2 11-1.7 15.5.5 4.7.9 9-2.7 12.2-3 2.6-7.2 2.9-10.9 2.3Z" fill="#FBDD11" stroke="#333" stroke-width=".5" stroke-miterlimit="10"/>
  <path d="M384 332.7c1.2 5.5.1 12.2-4 16.2 5.4-3.6 6.9-11.4 5.6-17.5-1.7-7.9-9.2-13.7-17-15-7.1-1-14.1 2-19.4 6.5 12.1-8.6 31.3-6.4 34.8 9.8Z" fill="#000" fill-opacity=".3"/>
  <path d="M376.6 344.7c-2.9 3.4-8 1.6-11-.9a2.7 2.7 0 0 0-2.4-.5c.4-.8 1.2-1.3 2.1-1.4.7 0 1.4.2 2 .7 2.3 2 6.3 3.7 9.3 2.1ZM308 354.9c.3-.3 1.6-1 2.4-.6l2.6 1.3a53.5 53.5 0 0 0 19.6 6.7c5.3 0 5.8-2.7 5-9.7l.4 1.3c1 4 2.6 10.1-5.4 10.1-8.7 0-22.3-7.5-24.7-9.1h.1Z" fill="#000" fill-opacity=".3"/>
  <path d="M295.7 384a72 72 0 0 1 5-22c2.2-5.6 4.6-15.5-4.5-17.7-13-3.3-20 27-20.6 36.3-.3 5.5 4 11.8 9.4 12.1 5.1.3 10.4-3.4 10.7-8.7Z" fill="#FBDD11" stroke="#333" stroke-width=".5" stroke-miterlimit="10"/>
  <path d="M275.5 380.6c5.5-.7 15.8-.7 20 3.6l.3-1.6c-4.5-4-14.8-4.2-20-3.4l-.3 1.4Zm1.7-9.6a34 34 0 0 0 19 8.4l.2-1.8c-7.3-1-13.6-4-18.7-8.6l-.5 2Z" fill="#000" fill-opacity=".1"/>
  <path d="M304.4 384a72 72 0 0 0-5-22c-2.1-5.6-4.6-15.5 4.5-17.7 13-3.3 20 27 20.6 36.3.3 5.5-3.9 11.8-9.4 12.1-5 .3-10.4-3.4-10.7-8.7Z" fill="#FBDD11" stroke="#333" stroke-width=".5" stroke-miterlimit="10"/>
  <path d="M324.7 380.6c-5.5-.7-15.8-.7-20.2 3.6l-.1-1.6c4.5-4 14.7-4.2 20-3.4l.3 1.4ZM323 371a34 34 0 0 1-19 8.4l-.3-1.8c7.3-1 13.7-4 18.8-8.6l.4 2h.1Z" fill="#000" fill-opacity=".1"/>
  <path d="M249.8 339c3.9.3 7.2-3 7.1-6.8 0-6.8 3-13.9 8.6-20.6 5-6 10.2-9.2 6.7-13.6-3.5-4.4-12.3-.5-17 5.1a45.1 45.1 0 0 0-11.6 29.5c0 3.4 2.3 6.1 6.2 6.4Z" fill="#FBDD11" stroke="#333" stroke-width=".5" stroke-miterlimit="10"/>
  <path d="M248 338.7c-5.7-11.9 7.4-36.4 22-42.3-4.2-1.4-10.9 2-14.8 6.7a45.1 45.1 0 0 0-11.6 29.5c0 2.8 1.6 5.2 4.5 6l-.1.1Z" fill="#000" fill-opacity=".1"/>
  <path d="M350.2 339c-3.9.3-7.2-3-7.1-6.8 0-6.8-3-13.9-8.6-20.6-5-6-10.2-9.2-6.7-13.6 3.4-4.4 12.3-.5 17 5.1a45.1 45.1 0 0 1 11.6 29.5c0 3.4-2.3 6.1-6.2 6.4Z" fill="#FBDD11" stroke="#333" stroke-width=".5" stroke-miterlimit="10"/>
  <path d="M352 338.7c5.7-11.9-7.4-36.4-22-42.3 4.2-1.4 10.9 2 14.8 6.7a45.1 45.1 0 0 1 11.6 29.5c0 2.8-1.6 5.2-4.5 6l.1.1Z" fill="#000" fill-opacity=".1"/>
  <path d="M421 211.8c11.8 10.9 7 33-1 45.6-11.5 18-37.7 29.2-51.2 19.7-14-10-12.2-41.3 4.2-57.6 12.2-12.1 35.7-19 48-7.7Z" fill="#F7C394" stroke="#333" stroke-width=".5" stroke-miterlimit="10"/>
  <path d="M407.1 224.6c7 7.3 3.2 21-2.3 28.6-7.9 10.8-24.8 17-32.9 10.4-8.4-6.7-6-26.3 4.8-36 8.2-7 23.1-10.5 30.4-3Z" fill="#FFC9A1"/>
  <path d="M420 257.4a52.9 52.9 0 0 1-37 23.1 67.9 67.9 0 0 0 32.7-22c8-12.6 12.3-36.2 1-45.6-3.5-2.9-12.3-7-24.3-4.8 14.7-4.6 23.8-.7 28.5 3.7 11.9 10.9 7.1 33-1 45.6h.1Z" fill="#000" fill-opacity=".1"/>
  <path d="M179.2 211.8c-11.9 10.9-7 33 1 45.6 11.4 18 37.7 29.2 51.1 19.7 14-10 12.2-41.3-4.2-57.6-12.2-12.1-35.6-19-48-7.7h.1Z" fill="#F7C394" stroke="#333" stroke-width=".5" stroke-miterlimit="10"/>
  <path d="M193 224.6c-7 7.3-3.2 21 2.3 28.6 7.9 10.8 24.8 17 32.9 10.4 8.4-6.7 6.1-26.3-4.8-36-8.1-7-23.1-10.5-30.4-3Z" fill="#FFC9A1"/>
  <path d="M180.2 257.4a52.9 52.9 0 0 0 37 23.1 67.9 67.9 0 0 1-32.8-22c-8-12.6-12.3-36.2-1-45.6 3.5-2.9 12.3-7 24.3-4.8-14.7-4.6-23.7-.7-28.5 3.7-11.9 10.9-7 33 1 45.6Z" fill="#000" fill-opacity=".1"/>
  <path d="M300 288.2c16.5 0 23.5 14.4 27.8 26.2 4.3 11.8 6.2 23.5 6.2 31.2a34.5 34.5 0 0 1-34 32.7c-18.7.2-33.9-16.5-33.9-32.7 0-7.7 2-19.4 6.2-31.2 4.3-11.8 11.3-26.2 27.8-26.2h-.1Z" fill="#FBDD11" stroke="#333" stroke-width=".5" stroke-miterlimit="10"/>
  <path d="M300 378.3a34.49 34.49 0 0 1-33.9-36 34 34 0 0 0 34 30.7 34.3 34.3 0 0 0 33.9-30.6 34.7 34.7 0 0 1-34 36v-.1Z" fill="#000" fill-opacity=".1"/>
  <path d="M300 301.4c11.2 0 17.1 7.3 18.6 13.7 3.7 15.7 6.9 29.2.5 37.3a22.6 22.6 0 0 1-19 8.7c-5.1 0-12.6-.6-19-8.7s-3.5-20.7.4-37.3a18.1 18.1 0 0 1 18.6-13.7h-.1Z" fill="#F7C394" stroke="#333" stroke-width=".5" stroke-miterlimit="10"/>
  <path d="M300 361.1c-14.4 0-23.8-10-22.7-23 .5 12.3 10.3 20.3 22.8 20.3s22.3-8 22.7-20.3c1.2 13-8.2 23-22.7 23h-.1Zm42.2-44.1c-12.3 4.8-29 8.4-42.1 8.4a118 118 0 0 1-42.2-8.4l-2.4 4c15.1 6 29.3 9.1 44.6 9.1 15.2 0 29.4-3 44.6-9.2l-2.5-4v.1Z" fill="#000" fill-opacity=".1"/>
  <path d="M353.4 105.9c4.5-3.8-13.2-8.1-15.6-14.9-2.9-8.2 42.2 13.6 35.4 27.9-.6 1-6 10-44.6-2.6 42.5 13.8 74.7 43 74.5 97.1-.1 41.5-37.3 105.7-103 106.3-63.5.5-103.2-63.6-103-106.3 0-52 46-105.7 103-109.7 34-2.4 49.6 5.3 53.3 2.2v0Z" fill="#FBDD11" stroke="#333" stroke-width=".5" stroke-linecap="round" stroke-linejoin="round"/>
  <path d="M360.4 108.3c-3.2 7-22.6-4.3-56.7-1.9-69.7 4.9-120.2 82.3-92.2 145 7.2-7.5 16-9.7 19-10.6l2.2 2.3c-8.7 2.7-18.8 8.6-23.2 16.7a104 104 0 0 1-12.4-46.4c.2-52 46.1-105.7 103-109.7 34.1-2.4 49.6 5.3 53.3 2.2 4.5-3.8-13.2-8.1-15.6-14.9-1-2.6 3-2.2 8.7.1-2.1-.3-3.3.2-2.7 1.7 2 5.4 19.2 9.6 16.5 15.5h.1Z" fill="#000" fill-opacity=".1"/>
  <path d="M403 213.4c0 13.6-4.1 29.7-11.8 45.2a44 44 0 0 0-23.8-15.3l2.1-2.6c2.5.5 13.7 3 20 11.3a96.8 96.8 0 0 0 9.2-39.6c.2-55.9-37.7-83.7-70-96 42.4 13.7 74.4 43 74.2 97h.1Z" fill="#000" fill-opacity=".1"/>
  <path d="M270.7 144.8c-31.6 0-70.9 67-38.7 98-61.4 19.1 0 83 68 83 68.2 0 129.6-63.9 68.2-83 32.1-31-7.1-98-38.8-98-13.5 0-20.9 6.2-29.3 12.4-8.5-6.2-15.9-12.4-29.4-12.4Z" fill="#FFCD98" stroke="#333" stroke-width=".5"/>
  <path d="M380 210.2c-1.7-32.9-28.3-65.4-51.4-65.4-14.3 0-23 8.8-28.5 12.4-4.4-3-14.2-12.4-28.7-12.4-27.2 0-51 39.8-51.4 66.4-2.4-28.6 19.6-71.6 51.6-71.6 16.6 0 25.5 8 28.5 11.3 3-3.3 11.8-11.3 28.4-11.3 31.8 0 53.8 40.7 51.5 70.6Z" fill="#000" fill-opacity=".1"/>
  <path d="M220.1 209.2a41.4 41.4 0 0 0 11.9 33.5c-1.1.3-2.2.8-3.2 1.2a54.06 54.06 0 0 1 7.3-1.8 55.8 55.8 0 0 1-16-33v.1Zm-10.8 49c-14.5 26.1 35.6 67.6 90.8 67.6 55.1 0 105.9-42 90.6-68 10.2 23.8-38.3 64-90.6 64-52 0-100.3-39.7-90.8-63.6ZM371.6 244c-2.3-.8-4.8-1.4-7.5-1.9a56 56 0 0 0 16-33.3 41.52 41.52 0 0 1-11.9 33.9l3.4 1.2v.1Z" fill="#000" fill-opacity=".1"/>
  <path d="M274.4 166c16.6 2 28.5 22.3 26.7 40.2-1.8 17.9-17.4 36.5-35.2 34.5-16.2-1.8-26.7-19.9-27-35-.5-20.3 17.1-41.8 35.5-39.6v-.1Z" fill="#fff"/>
  <path d="M282.6 168.6c-21.8-6-40 19.9-39.5 39.3a40 40 0 0 0 16.3 31c-12.5-5.1-20.2-20.2-20.5-33.2-.5-20.3 17.1-41.8 35.5-39.6 2.9.3 5.6 1.2 8.2 2.5Z" fill="#000" fill-opacity=".1"/>
  <path d="M294.5 215.4c2.3-12.2-4.2-23.7-14.7-25.7s-20.8 6.1-23.2 18.3c-2.4 12.2 4.2 23.7 14.7 25.7 10.4 2 20.8-6.2 23.2-18.3Z" fill="#616161" stroke="#333" stroke-width=".5" stroke-miterlimit="10"/>
  <path d="M276.7 231c6.3 0 11.3-5.7 11.3-12.7 0-7-5-12.6-11.3-12.6-6.3 0-11.3 5.6-11.3 12.6s5 12.7 11.3 12.7Z" fill="#000"/>
  <path d="M286.7 209.5c.8-2.3-.4-4.7-2.8-5.6-2.4-.8-5 .3-5.7 2.6-.8 2.2.5 4.7 2.8 5.6 2.3.9 5-.4 5.7-2.6Z" fill="#fff" stroke="#333" stroke-width=".5" stroke-miterlimit="10"/>
  <path d="M285.5 192c-12-3.5-22.7 6.9-24.8 18.1a23 23 0 0 0 7.7 22.8c-8.8-3.5-14-13.9-11.8-24.9 2.4-12.1 12.8-20.3 23.2-18.3 2 .4 4 1.1 5.7 2.2v.1Z" fill="#000" fill-opacity=".1"/>
  <path d="M325 165.6c-16.5 2.2-28 22.8-26 40.7 2.1 17.8 18 36.1 35.8 33.8 16.2-2.1 26.4-20.3 26.5-35.5 0-20.3-18-41.4-36.3-39Z" fill="#fff"/>
  <path d="M361.3 204.6c-.1 13.2-7.8 28.6-20.4 33.9a39.6 39.6 0 0 0 16.3-31.8c0-19.6-19.3-46-41.2-37.9 2.8-1.6 5.8-2.8 9-3.2 18.4-2.4 36.4 18.7 36.3 39Z" fill="#000" fill-opacity=".1"/>
  <path d="M343.5 207.2c-2.6-12.2-13.1-20-23.5-17.8-10.5 2.2-16.8 13.8-14.3 25.9 2.5 12.1 13.1 20.1 23.6 18 7.2-1.44 17.3-11.52 14.2-26.1Z" fill="#616161" stroke="#333" stroke-width=".5" stroke-miterlimit="10"/>
  <path d="M323.7 230.5c6.3 0 11.2-5.8 11.1-12.8-.1-7-5.3-12.5-11.5-12.4-6.2.1-11.2 5.8-11 12.8 0 7 5.2 12.6 11.4 12.4Z" fill="#000"/>
  <path d="M330.8 212c2.4-.8 3.6-3.3 2.8-5.6-.8-2.3-3.5-3.3-5.8-2.4-2.3.9-3.6 3.4-2.7 5.6.9 2.2 3.4 3.3 5.7 2.5v-.1Z" fill="#fff" stroke="#333" stroke-width=".5" stroke-miterlimit="10"/>
  <path d="M331.5 232.5a22.6 22.6 0 0 0 8-23.1c-2.5-11.3-13.6-21.5-25.5-17.5 1.8-1.2 3.8-2.1 6-2.6 10.4-2.2 21 5.8 23.5 18 2.4 11.2-2.9 22-12 25.2Z" fill="#000" fill-opacity=".1"/>
  <path d="M290.5 395.7c3.4 0 6.7-2.5 7-6 1-8.8-10-9.6-16-9.7-6-.1-16.4 1-18.2 7.7-1.6 5.9 3.9 8 7.8 8s5.2-1.3 9.9-1.3c4 0 6 1.3 9.5 1.3Z" fill="#F7C394" stroke="#333" stroke-width=".5" stroke-miterlimit="10"/>
  <path d="M290.4 393.4c-3.5 0-5.4-1.3-9.5-1.3-4.7 0-6 1.3-10 1.3-3 0-7-1.3-7.8-4.7-.8 5.1 4.3 7 8 7 3.8 0 5.2-1.3 9.9-1.3 4 0 6 1.3 9.5 1.3 4.5 0 7.8-3.6 7-8.6-.3 3.6-3.6 6.3-7.1 6.3Z" fill="#000" fill-opacity=".1"/>
  <path d="M309.7 395.7c-3.4 0-6.8-2.5-7.1-6-1-8.8 10-9.6 16-9.7 6.1-.1 16.5 1 18.3 7.7 1.5 5.9-4 8-7.8 8s-5.2-1.3-10-1.3c-4 0-6 1.3-9.4 1.3Z" fill="#F7C394" stroke="#333" stroke-width=".5" stroke-miterlimit="10"/>
  <path d="M309.8 393.4c3.4 0 5.4-1.3 9.5-1.3 4.7 0 6 1.3 9.9 1.3 3 0 7-1.3 7.9-4.7.7 5.1-4.4 7-8 7-4 0-5.2-1.3-10-1.3-4 0-6 1.3-9.4 1.3-4.6 0-7.8-3.6-7-8.6.3 3.6 3.6 6.3 7 6.3h.1Z" fill="#000" fill-opacity=".1"/>
  <path d="M300.1 312c29.3 0 61-12 70.8-40.6 1.6-4.5-2.4-9-7.2-8.3-42.22 6-85.08 6-127.3 0-4.8-.7-8.7 3.8-7.1 8.3C239 300 270.8 312 300 312h.1Z" fill="#3D0C0C"/>
  <path d="M361.7 284.3c3.5-4.2 6-8.8 7.3-13.4 1-3.5-1.6-6.4-5-5.9a458.97 458.97 0 0 1-127.8 0c-3.5-.5-6 2.4-5 6 1.2 4.5 3.7 9 7.2 13.3 40.9 5.6 82.5 5.7 123.3 0Z" fill="#fff"/>
  <path d="M300.1 310c21.2 0 44.2-7 59.1-22.8-39.2 5.2-79 5.2-118.3 0 15 15.9 37.9 22.7 59.2 22.7v.1Z" fill="#fff"/>
  <path d="M369 271a36.9 36.9 0 0 1-7.3 13.3c-3.1.5-6.3.9-9.4 1.2a68.58 68.58 0 0 0 9.8-20.2l1.8-.3c3.5-.5 6 2.4 5 6h.1Zm-130.6 13.3 9.5 1.3a68.01 68.01 0 0 1-9.8-20.3l-2-.3c-3.4-.5-5.9 2.4-5 6 1.3 4.5 3.8 9 7.3 13.3Zm2.6 2.9a70.7 70.7 0 0 0 30.9 18.6 73.2 73.2 0 0 1-22-17.5l-9-1 .1-.1Zm87.5 18.5a70.5 70.5 0 0 0 30.7-18.5l-8.8 1.1a73.98 73.98 0 0 1-22 17.4h.1Zm-51.4-65.4c0 8.1 10.6 18 23.1 18 11.5-.2 22.8-10 22.8-18 0-16.2-45.9-16.5-45.9 0Z" fill="#000" fill-opacity=".1"/>
  <path d="M276.8 238.4c0 8.1 10.7 18 23.4 17.9 11.7-.1 23.1-9.9 23.1-18 0-6.4-13.4-12-23.1-12-9 .1-23.4 4.4-23.4 12v.1Z" fill="#7A5D43"/>
  <path d="M277 237a29.7 29.7 0 0 0 23.2 10.6 31 31 0 0 0 22.9-10.8l.2 1.6c0 8-11.4 17.8-23.1 17.9-12.7 0-23.4-9.8-23.4-18 0-.4 0-.9.2-1.3Z" fill="#000" fill-opacity=".2"/>
  <path d="M251.8 351.3h-7.1c-.94 0-1.7.76-1.7 1.7v42c0 .94.76 1.7 1.7 1.7h7.1c.94 0 1.7-.76 1.7-1.7v-42c0-.94-.76-1.7-1.7-1.7Z" fill="#F8F4FF" stroke="#333" stroke-width=".5"/>
  <path fill-rule="evenodd" clip-rule="evenodd" d="M243.1 395.7c.3.6.9 1 1.6 1h7c1 0 1.8-.7 1.8-1.7v-42c0-1-.8-1.7-1.8-1.7h-2.6V394c0 1-.7 1.7-1.6 1.7h-4.4Z" fill="#000" fill-opacity=".1"/>
  <path d="M355.4 351.3h-7.1c-.94 0-1.7.76-1.7 1.7v42c0 .94.76 1.7 1.7 1.7h7.1c.94 0 1.7-.76 1.7-1.7v-42c0-.94-.76-1.7-1.7-1.7Z" fill="#F8F4FF" stroke="#333" stroke-width=".5"/>
  <path fill-rule="evenodd" clip-rule="evenodd" d="M346.7 395.7c.3.6.9 1 1.6 1h7c1 0 1.7-.7 1.7-1.7v-42c0-1-.7-1.7-1.7-1.7h-2.7l.2.7v42c0 1-.8 1.7-1.8 1.7h-4.3Z" fill="#000" fill-opacity=".1"/>
  <path d="M404.5 338.2H195.6a2.2 2.2 0 0 0-2.2 2.2v10.7c0 1.21.98 2.2 2.2 2.2h208.9a2.2 2.2 0 0 0 2.2-2.2v-10.7a2.2 2.2 0 0 0-2.2-2.2Z" fill="#F8F4FF" stroke="#333" stroke-width=".5"/>
  <path fill-rule="evenodd" clip-rule="evenodd" d="M193.4 345.8v5.3c0 1.2 1 2.2 2.3 2.2h208.8c1.2 0 2.2-1 2.2-2.2v-5.3c0 1.2-1 2.2-2.2 2.2H195.7c-1.3 0-2.3-1-2.3-2.2Z" fill="#000" fill-opacity=".1"/>
  <path d="M247 276.7a3.2 3.2 0 0 1 3.2-3.5H350c1.8 0 3.3 1.6 3.2 3.5l-4 56.3H251l-4-56.3Z" fill="#E6E6E6" stroke="#333" stroke-width=".5"/>
  <path d="M251 333h98.1l-.4 4.4c0 .5-.4.8-.9.8h-95.5a.9.9 0 0 1-.8-.8l-.5-4.4Z" fill="#B3B3B3" stroke="#333" stroke-width=".5"/>
  <path fill-rule="evenodd" clip-rule="evenodd" d="M305.7 312c-8.1 1-11.9-6.1-11.2-6.8.4-.5 1.1-.5 1.7-.5 2.7 0 6.6 3.1 7.4 3 1.5 0 3.8-2.4 5.3-4.4.6-.8 4.5-2 4 .2-1.3 7-6.1 8.4-7.2 8.6v-.1Zm-11.3-13.4c8.1-1 11.9 6.2 11.2 6.9-.4.5-1 .5-1.7.5-2.7 0-6.6-3.1-7.3-3-1.6 0-3.8 2.4-5.3 4.3-.7.9-4.6 2.1-4.1 0 1.4-7.1 6.2-8.5 7.2-8.7Z" fill="#A4A4A4"/>
  <path d="m250.9 273.2 98 59.4a1 1 0 0 1-.8.4H252a1 1 0 0 1-1-1l-4-55.3a3.2 3.2 0 0 1 3.2-3.5h.7Z" fill="#000" fill-opacity=".1"/>
  <path d="M285.16 52.58a44.58 44.58 0 1 0-89.16 0 44.58 44.58 0 0 0 89.16 0Z" fill="#333" stroke="#333"/>
  <path d="M279.21 52.58a38.63 38.63 0 1 0-77.27 0 38.63 38.63 0 0 0 77.27 0Z" fill="#66E279"/>
  <path d="M252.19 66.26c-16.69 2.1-24.37-12.6-23-14.02.9-.95 2.3-1 3.5-1.04 5.58-.15 13.48 6.36 15.08 6.33 3.1-.06 7.76-5 10.82-9.05 1.28-1.7 9.27-4.27 8.39.2-2.88 14.48-12.67 17.3-14.8 17.58Zm-23.22-27.4c16.68-2.1 24.36 12.58 23 14.01-.9.95-2.3 1-3.51 1.04-5.58.15-13.47-6.36-15.07-6.33-3.1.06-7.77 5-10.83 9.05-1.28 1.7-9.27 4.26-8.38-.2 2.87-14.48 12.66-17.31 14.79-17.58Z" fill="#333"/>
</svg>
